/* XPM */
static char *_508240981636[] = {
/* columns rows colors chars-per-pixel */
"64 64 107 2 ",
"   c #010101",
".  c #000E00",
"X  c #001300",
"o  c #011D00",
"O  c #0B110B",
"+  c #0E1F0B",
"@  c #1C0B1C",
"#  c #131414",
"$  c #151C13",
"%  c #1E171D",
"&  c #1D1D1D",
"*  c #022201",
"=  c #082706",
"-  c #002C00",
";  c #0D240B",
":  c #0C2C0B",
">  c #10230E",
",  c #003400",
"<  c #003D00",
"1  c #083609",
"2  c #0A3A0C",
"3  c #142413",
"4  c #192217",
"5  c #162B15",
"6  c #1B261B",
"7  c #143515",
"8  c #143A15",
"9  c #1C341C",
"0  c #1F391F",
"q  c #210121",
"w  c #220F21",
"e  c #251B25",
"r  c #291F29",
"t  c #232523",
"y  c #242C24",
"u  c #2C252C",
"i  c #2D2D2D",
"p  c #263426",
"a  c #2C322C",
"s  c #302930",
"d  c #343434",
"f  c #383438",
"g  c #3B3B3B",
"h  c #004200",
"j  c #09450B",
"k  c #007D03",
"l  c #037E0A",
"z  c #0E7B14",
"x  c #127E18",
"c  c #444444",
"v  c #494949",
"b  c #6F6F6F",
"n  c #747474",
"m  c #777877",
"M  c #787678",
"N  c #7D7D7D",
"B  c #008302",
"V  c #02840B",
"C  c #08810F",
"Z  c #05880E",
"A  c #078611",
"S  c #0B8312",
"D  c #068811",
"F  c #0C8A14",
"G  c #118617",
"H  c #108C17",
"J  c #138219",
"K  c #138D1A",
"L  c #19881F",
"P  c #16901D",
"I  c #18901F",
"U  c #1B8C21",
"Y  c #1C9323",
"T  c #1E9B26",
"R  c #209527",
"E  c #209C27",
"W  c #229629",
"Q  c #259A2B",
"!  c #289B2F",
"~  c #2B9D32",
"^  c #25A12C",
"/  c #28A52F",
"(  c #2EA135",
")  c #30A337",
"_  c #33A53A",
"`  c #36A93E",
"'  c #38AA3F",
"]  c #3AAC41",
"[  c #43B74B",
"{  c #48BC50",
"}  c #7F807F",
"|  c #4EE458",
" . c #51EB5B",
".. c #54F15F",
"X. c #5AF264",
"o. c #59F964",
"O. c #65E36E",
"+. c #67E670",
"@. c #6AEC75",
"#. c #6DF077",
"$. c #6EF178",
"%. c #71F57B",
"&. c #73FA7E",
"*. c #7F7F80",
"=. c #75FB80",
"-. c #78FF83",
";. c #808080",
/* pixels */
"N M M M n m m n m m m n m n m m m n m n n m m n m n m m N ;.;.N M ;.;.;.;.;.;.} ;.;.;.;.;.;.;.;.N M ;.;.;.M M M M n m M n m m } ",
"M y d g d g g d g f d g g d d g f f g f d g g a d d i g N ;.;.N c M ;.} ;.} ;.;.*.;.N ;.;.;.;.;.N c M ;.} c i d i d f f f f & m ",
"M i b M b n n n b n n b n n n n n n n M n b n } N N m } ;.;.;.;.N ;.;.;.;.;.;.;.;.} } ;.;.;.*.} ;.N ;.;.;.} N N } N M n n n a n ",
"M t d g g g f g g g g g g g d d d g g d d g g } ;.;.;.;.;.} ;.;.;.;.;.;.} ;.;.} ;.;.;.;.;.;.;.;.;.;.;.;.*.;.*.*.;.} c i f a # n ",
"M i b n n n n n n n n n b n m } m M M m N m M } ;.;.;.;.;.;.;.;.;.;.;.} ;.;.} ;.;.;.;.;.;.;.*.;.;.;.;.;.*.;.;.N ;.} N N N N d n ",
"M & g g g g g g g f d g g c } ;.N g g N N c N ;.;.;.;.;.;.;.;.;.} *.;.;.;.;.;.;.;.;.} ;.*.;.;.;.;.;.} ;.} ;.;.;.;.} ;.;.;.;.i n ",
"m i b n b n b n n m } n n n m m ;.N N N } N } ;.;.;.;.;.} ;.;.;.;.*.;.*.;.;.;.} ;.} } ;.;.} ;.;.;.;.} ;.;.;.;.*.} *.} } ;.} c n ",
"m t f g g f g a c } m g d g d g N ;.;.;.;.;.;.;.;.;.;.;.;.;.N ;.;.;.;.;.} ;.;.;.;.;.;.;.;.;.;.;.;.;.;.;.*.;.} ;.;.*.} ;.;.;.m N ",
"M a b n M m N N m m } N N N m N ;.;.N ;.;.;.;.;.;.;.;.;.;.;.;.;.N ;.;.;.;.;.;.;.N ;.;.;.;.;.;.;.;.;.;.} ;.;.*.*.;.} ;.;.;.;.v M ",
"M & d d c ;.;.;.m c N ;.;.;.;.;.;.;.;.;.;.;.;.;.;.;.;.;.;.;.;.;.;.*.*.;.;.;.;.;.;.;.;.;.;.;.;.;.;.;.*.} ;.;.;.*.;.;.;.;.;.*.N } ",
"M d M } N ;.;.;.;.} } ;.;.;.;.;.;.} ;.;.;.;.;.;.N M N M N M M M N M N } ;.;.;.M M M N m M M M N N M M N N N M N N N M M M ;.;.;.",
"M i ;.;.m M ;.;.} } } } ;.;.;.;.;.;.;.;.;.N ;.M i 9 6 4 $ 0 0 0 t # f M ;.;.} d 5 4 $ 4 9 0 p 6 % i t 9 4 $ $ $ $ $ $ 9 t n ;.} ",
"m g } m d g ;.M c N ;.;.;.;.;.;.;.;.;.;.N ;.M u , l R W ! F D z o t M ;.} ;.} i B ! ! ! G A S * e n a k W ! ~ ~ ~ ! ! G , M ;.} ",
"N M ;.;.N M N N N N ;.;.;.;.;.;.} ;.;.N ;.M u , l ( $.&.@.Q G , u M ;.;.;.;.N i K O.$.@.~ S < t m } a F @.%.@.@.@.$.@.( * M ;.} ",
"m v } ;.;.N c N ;.;.;.} } ;.;.} ;.;.} } m u , V ( $.-.$._ S - u M ;.;.;.;.;.N a V ` ~ W L , e M ;.} i F @.{ _ ] ' ! Q K 1 M ;.;.",
"N M } ;.;.N N ;.;.;.;.;.;.;.;.;.} } ;.M u , S ( $.-.@.( k - u M ;.;.;.;.;.;.N y K O.~ k , r M ;.;.N a A %.@.@.@.@.~ B H 2 M ;.;.",
"M v N ;.;.;.;.;.;.;.;.;.;.;.;.;.;.;.M u , D ) %.-.$.) l , s N } N ;.;.;.;.;.} a V ! L , r m ;.;.;.N i F $.{ _ ~ Q I K K 2 n ;.N ",
";.m ;.;.;.;.;.;.;.N ;.;.;.;.;.;.;.m u , C ) $.-.$.) l , s M ;.} ;.;.} ;.;.;.N a V F , r m ;.;.N ;.} i D @.$.@.~ B K K K 2 M ;.} ",
";.;.;.;.;.;.;.;.;.;.;.;.;.;.;.;.M u , C ) $.-.@.) C , u M ;.} } ;.;.;.;.;.;.N a l < e M ;.;.*.;.;.*.d B _ ~ ! P K K K F 2 M ;.;.",
";.;.;.;.} ;.;.;.;.;.;.;.*.N ;.M u , V ) #.-.%.) S , u m ;.} } } ;.;.;.;.;.;.N i . t M ;.;.;.;.;.;.*.a A O.( B K K H K H 2 M ;.;.",
"} N N ;.;.;.;.} ;.;.;.;.N ;.m u , l ) #.-.$.) l , u M ;.;.;.;.;.;.;.;.} ;.;.N t % M ;.;.;.;.*.;.;.N d B Q K F K H K K G , n ;.;.",
"M c N ;.;.} ;.;.} ;.;.N ;.M u , l ) @.-.@.) l , u M ;.;.;.;.;.;.;.;.;.;.;.;.N g n ;.;.;.;.;.;.*.;.N i B Q Q T P H K j X t m ;.} ",
"} N ;.;.;.;.;.;.;.;.} ;.m u , C ) @.-.#.( l , s M ;.;.;.;.;.;.*.*.;.;.;.;.;.;.N ;.;.;.;.;.} } } N f * U O.X. .^ D L , q n ;.;.;.",
"} ;.;.} ;.;.} ;.} } ;.m u , S ) %.-.#.~ l , s M ;.N ;.;.;.;.;.;.;.;.;.} ;.} ;.;.*.;.;.;.;.} ;.N f o z P Q E E P G < e n ;.;.;.;.",
";.;.;.;.;.;.;.;.N ;.M u , S _ $.-.$.( l , s M ;.} ;.;.;.*.*.*.*.} ;.;.;.;.;.;.} ;.*.;.;.;.;.M f o G K F C D F G < w M ;.} ;.;.;.",
"N N ;.;.;.} N ;.;.M u , l ) $.-.@.) l , s M ;.} ;.;.} ;.*.*.*.*.*.;.;.;.;.*.*.;.;.;.;.N ;.N f o J P H W I K K < @ n ;.} } ;.;.} ",
"M c N ;.;.;.} ;.M u , V ( %.-.$.) S , u M ;.} ;.;.} ;.;.;.} ;.*.;.N ;.;.;.*.;.;.;.;.} ;.m f o J F F Y O.) V h @ n ;.;.;.;.;.;.;.",
";.M N ;.} } ;.M s , k ) $.=.$.) S , u M ;.} } ;.;.;.;.;.*.;.;.;.;.;.;.;.;.;.} ;.;.;.;.M f o x K W K K ~ L < @ n ;.;.;.;.;.;.} ;.",
";.;.;.;.N ;.M u , k ( $.$._ Q J , u m ;.;.;.;.;.;.;.;.;.;.;.;.;.;.;.;.;.;.*.*.*.} ;.N f o J F Y O._ B F , % n ;.;.N ;.;.} ;.;.} ",
";.;.;.} ;.M i , C ( $.$.( V l , u M ;.;.} ;.;.N ;.} ;.;.;.;.*.*.;.;.;.;.N *.*.*.;.N f * J P K F ! I G h w n ;.;.;.;.;.;.;.;.;.;.",
";.;.;.;.m u , C ( $.$.~ B K , s m ;.;.;.;.;.;.;.;.;.;.;.;.;.;.*.;.;.;.;.;.;.;.;.M f * J F K K W F F h w n *.N ;.;.;.;.;.;.;.;.;.",
";.;.;.M u , C ( $.$.( Y ^ D t n N M N N N N N N N N N M N N N N N N N ;.;.*.*.N f o J P Y F U +._ - e n ;.;.;.;.;.;.;.;.N N ;.} ",
"} ;.N u , S ) %.&.` ~ @.@.U - a p p p p p p p p a p p p p p p p p y i N } } } f o J K I | ^ F ! K 2 n ;.;.;.;.;.;.N ;.N g M ;.*.",
"} ;.M 7 l ) $.&.$.@.@._ ! K F B V V V V B B B B B B B B B V V Z C k 7 M ;.;.} y l K H K T F F K F 8 M ;.N ;.;.;.;.;.N g   M ;.N ",
"} ;.M 5 W %.%.' _ ' ( Z A Y K K P I K I Q Q E W W Q W Q W K K F P F 0 N ;.} } a V K K K Y R ! @.) o M ;.*.;.;.;.;.} g   O M ;.;.",
";.;.N > ! &.%.@.#.O.P V ~ +.Q D D F B R @.#.@.@.@.#.@.$.@.W F R P Z 0 M ;.;.} a V K F Y +.$.#.%.( * N ;.;.;.;.;.N g o x 2 M ;.;.",
"} ;.N + ~ %.] ` _ ) W K Y ( P K W W W Q ` ` ` ` ' ) ) ) ) H R O.( B 0 N ;.;.} a V K H F ~ ( ~ ) K 7 M ;.;.;.;.N g o z P 2 n ;.;.",
"} ;.M 3 ! %.#.O.D R O.W B B B W +.@.@.$.@.#.#.#.@.Y B B B F P ( I C 0 M ;.;.} a V K K R Y K W +.) * M ;.;.;.;.g . z P H 2 n ;.;.",
";.;.M 9 K _ ) ) K I ( I R W W Q ' ' ' ) ) ) ) ( ( P K L R P H V K Z 0 M ;.;.} a V H Y +.%.$.$.=.( * M ;.;.} g X z E | ( o M ;.;.",
"} ;.N > ! O.K B P P B W @.$.#.@.@.#.+.I B Z V V V P F W +.! Z P P D 0 M ;.;.N a V K H ~ ~ ~ ) #.) o M ;.N g X z K | o.^ o M ;.;.",
"} ;.N 7 F ~ K F H F F K ! ) ! ( ( ( ! K H K H H K K K P ( P F K H Z 9 M ;.;.;.a V W Y Y L K Y $._ o M ;.g   x T Y ^ ^ P 1 n ;.N ",
";.;.M t : ; 7 7 7 9 7 7 + o + * o o + 7 7 7 7 7 1 F F F V K K K R F 0 M ;.;.N i G +.$.#.$.$.$.&.( ; M c X x P | ..^ | / * M ;.} ",
"} } } M M N M M M M M M n M N M M N M M M M M n y A Y K K K F R O.Q 3 M ;.;.N p B ( ) ( ) ) ( ~ H , e . l F F E ^ F E H , M ;.;.",
"M c } ;.;.;.;.;.;.;.;.;.;.} ;.} *.;.;.;.;.;.;.} t Y +.! Z P F K ` K 9 N ;.;.*.d 1 ; o * * * o = 7 $   # 8 8 8 > ; 7 > 7 $ m ;.;.",
"*.M N ;.} } } } N ;.;.N N ;.N ;.;.;.;.;.} } ;.N p D ( Y H K Z Q O.Q 3 N ;.N ;.M n M M M M M M N M m M M M M M N M M M M M ;.;.;.",
"*.*.;.*.;.;.;.} ;.;.;.;.;.;.;.;.;.;.;.;.;.*.;.N p V C F P F ! +.[ A 9 N ;.*.;.;.;.;.;.;.;.;.;.;.;.;.;.;.;.;.;.;.;.;.;.;.;.;.;.;.",
";.;.} ;.;.;.;.;.;.;.;.;.;.;.;.;.;.;.*.;.*.N *.N p Z I K Z Y +.-.@.R 5 M ;.} ;.*.;.;.;.*.;.;.;.;.} ;.;.;.*.N ;.;.;.;.*.*.} ;.;.;.",
"*.} ;.;.*.} ;.;.N ;.;.;.;.;.N ;.;.;.*.*.*.;.;.N p Z P K Y W ` ` ` H 9 M ;.;.;.;.;.;.;.;.;.;.;.;.;.;.;.;.;.;.;.;.;.;.;.} ;.;.;.;.",
"M c } ;.;.;.;.;.N *.;.;.;.;.;.;.;.;.;.;.;.;.*.N p F D R +.#.@.#.@.Q 5 M ;.N N ;.*.*.*.N ;.;.N ;.;.;.;.;.;.;.;.;.;.;.;.;.;.;.;.;.",
"M i N } ;.;.;.;.*.*.;.;.;.;.;.;.;.;.N ;.;.;.N N y C I R ` ] ` ] %.~ $ M ;.;.;.;.;.*.*.;.;.;.;.;.;.} ;.;.;.;.N ;.;.;.;.;.;.N c n ",
"} M } *.;.;.} ;.*.;.;.;.;.;.;.;.;.;.N ;.;.;.;.N y Y @.#.@.+.@.@.%.Q 5 N ;.;.;.;.;.*.;.;.;.;.*.;.;.} } ;.;.;.;.;.;.;.;.;.;.;.d b ",
";.;.} } N ;.;.;.;.;.;.;.;.;.N ;.;.;.;.;.;.;.;.N y C ) ) ` _ ` ` ) D 5 N ;.;.;.;.;.;.*.;.;.;.;.} ;.;.;.;.;.;.;.N ;.;.;.N ;.;.M N ",
"N g i c } } ;.;.;.;.;.;.;.;.;.;.;.;.;.;.;.} ;.N y 1 * o o o * o = 1 t m ;.;.;.;.;.;.;.*.} ;.*.;.;.;.;.;.;.*.;.;.;.;.;.;.;.;.;.;.",
"N n n M } ;.;.;.;.;.;.;.;.;.;.N ;.;.;.;.;.;.;.} m M M m M M M M n M M N ;.;.;.;.*.;.;.;.;.;.;.;.;.*.;.*.;.;.;.;.N ;.;.;.;.} c M ",
"M v *.;.;.;.;.;.;.N N ;.;.;.;.;.;.N ;.;.N ;.} ;.;.} ;.;.;.;.;.;.;.;.;.;.;.;.;.;.;.;.;.*.;.*.*.;.;.*.;.;.;.;.;.;.;.;.;.;.;.;.M N ",
"} n } } N N N ;.;.;.;.;.;.;.;.;.;.;.;.;.;.;.;.;.;.} ;.;.;.;.;.;.;.;.;.;.;.;.;.;.;.;.;.;.;.} ;.;.;.;.;.;.;.N ;.;.;.;.;.;.N N ;.;.",
"N g p v M g p c N ;.;.;.} ;.;.;.;.;.;.} ;.;.;.;.;.;.;.;.;.;.;.N ;.;.;.;.} ;.;.;.;.} ;.;.} ;.;.;.;.} } } } c M ;.} ;.;.;.c u d m ",
"m u b n N n b n N ;.} } } } } ;.;.;.;.} ;.} ;.} N ;.;.;.;.;.;.;.;.;.;.;.;.;.;.N ;.;.;.;.;.;.;.;.;.;.} } } M N ;.;.;.} } M n n } ",
"m f M c f g g c f f f f d c N ;.;.;.;.;.;.} ;.;.;.;.;.;.;.;.;.;.;.;.;.;.;.;.;.;.;.;.;.;.;.;.;.;.;.N v M ;.;.} } ;.;.v i g g g M ",
"n f N n b n b n n n b n b n N ;.N ;.;.;.;.;.;.;.;.;.;.N ;.;.;.;.;.;.;.;.;.;.;.;.;.;.;.;.;.N ;.;.;.*.M N ;.} } } } N n n n n t n ",
"M t f g g g g g g g g g g c f d g } ;.;.;.;.;.;.;.;.;.;.;.;.;.} ;.;.} ;.;.;.;.;.;.;.;.;.;.;.} ;.;.;.;.;.} } } v d f g g g g & M ",
"n a b n n n n n n n n n n b n b n } } } N ;.;.;.;.;.;.N ;.;.;.;.} ;.} } } N ;.;.;.;.;.N } ;.;.;.;.N ;.;.} } } n b n n n n b i n ",
"N t f g g g g g g g g g g g g g g d f s g N ;.N ;.N v M ;.} ;.;.;.;.;.;.N v M ;.;.;.;.N ;.;.;.;.N c d d d d d g g g g g g g $ M ",
"} n n n n n n n n n b n n n n n n n n n n ;.;.;.;.;.n ;.} ;.;.} ;.;.;.;.;.n N ;.;.;.;.;.;.;.*.;.;.n n n n n n n n n n b n n n N "
};
